<svg viewBox="0 0 512 512" xmlns="http://www.w3.org/2000/svg" role="img" aria-label="PlexMix app icon — orange">
  <defs>
    <linearGradient id="og" x1="0" y1="0" x2="512" y2="512" gradientUnits="userSpaceOnUse">
      <stop offset="0" stop-color="#F97316"></stop>
      <stop offset="1" stop-color="#EA580C"></stop>
    </linearGradient>
  </defs>
  <rect width="512" height="512" rx="114" fill="url(#og)"></rect>
  <g transform="translate(31,26) scale(4.69)">
    <circle cx="34" cy="36" r="18" fill="none" stroke="#ffffff" stroke-width="2.6" opacity="0.85"></circle>
    <circle cx="34" cy="36" r="14.5" fill="none" stroke="#ffffff" stroke-width="0.5" opacity="0.4"></circle>
    <circle cx="34" cy="36" r="12" fill="none" stroke="#ffffff" stroke-width="0.5" opacity="0.4"></circle>
    <circle cx="34" cy="36" r="9.5" fill="none" stroke="#ffffff" stroke-width="0.5" opacity="0.4"></circle>
    <circle cx="34" cy="36" r="7" fill="none" stroke="#ffffff" stroke-width="0.5" opacity="0.4"></circle>
    <circle cx="34" cy="36" r="3.4" fill="#ffffff" opacity="0.85"></circle>
    <rect x="10" y="6" width="5.5" height="9" rx="2.6" fill="#ffffff"></rect>
    <path d="M12.7 14 C13 19.5 16 22.5 20 24.5 L25.5 28" fill="none" stroke="#ffffff" stroke-width="2.4" stroke-linecap="round" stroke-linejoin="round"></path>
    <rect x="21.5" y="26.4" width="8" height="4.2" rx="2" transform="rotate(48 25.5 28.5)" fill="#ffffff"></rect>
    <circle cx="57" cy="57" r="23" fill="url(#og)"></circle>
    <circle cx="57" cy="57" r="23" fill="none" stroke="#ffffff" stroke-width="5"></circle>
    <g fill="#ffffff">
      <rect x="42" y="52" width="4" height="10" rx="2"></rect>
      <rect x="49" y="48" width="4" height="18" rx="2"></rect>
      <rect x="56" y="45" width="4" height="24" rx="2"></rect>
      <rect x="63" y="48" width="4" height="18" rx="2"></rect>
      <rect x="70" y="52" width="4" height="10" rx="2"></rect>
    </g>
  </g>
</svg>