<svg viewBox="0 0 512 512" xmlns="http://www.w3.org/2000/svg" role="img" aria-label="PlexMix app icon — dark">
  <rect width="512" height="512" rx="114" fill="#18181B"></rect>
  <g transform="translate(31,26) scale(4.69)">
    <circle cx="34" cy="36" r="18" fill="#b06b3d"></circle>
    <circle cx="34" cy="36" r="15.5" fill="none" stroke="#8c522d" stroke-width="0.55"></circle>
    <circle cx="34" cy="36" r="13.5" fill="none" stroke="#8c522d" stroke-width="0.55"></circle>
    <circle cx="34" cy="36" r="11.5" fill="none" stroke="#8c522d" stroke-width="0.55"></circle>
    <circle cx="34" cy="36" r="9.5" fill="none" stroke="#8c522d" stroke-width="0.55"></circle>
    <circle cx="34" cy="36" r="7.5" fill="none" stroke="#8c522d" stroke-width="0.55"></circle>
    <circle cx="34" cy="36" r="5.5" fill="none" stroke="#8c522d" stroke-width="0.55"></circle>
    <circle cx="34" cy="36" r="4" fill="#18181B"></circle>
    <rect x="10" y="6" width="5.5" height="9" rx="2.6" fill="#ffdfc7"></rect>
    <path d="M12.7 14 C13 19.5 16 22.5 20 24.5 L25.5 28" fill="none" stroke="#ffdfc7" stroke-width="2.4" stroke-linecap="round" stroke-linejoin="round"></path>
    <rect x="21.5" y="26.4" width="8" height="4.2" rx="2" transform="rotate(48 25.5 28.5)" fill="#ffdfc7"></rect>
    <circle cx="57" cy="57" r="23" fill="#18181B"></circle>
    <circle cx="57" cy="57" r="23" fill="none" stroke="#F97316" stroke-width="5"></circle>
    <g fill="#F97316">
      <rect x="42" y="52" width="4" height="10" rx="2"></rect>
      <rect x="49" y="48" width="4" height="18" rx="2"></rect>
      <rect x="56" y="45" width="4" height="24" rx="2"></rect>
      <rect x="63" y="48" width="4" height="18" rx="2"></rect>
      <rect x="70" y="52" width="4" height="10" rx="2"></rect>
    </g>
  </g>
</svg>